<svg width="330" height="94" viewBox="0 0 330 94" fill="none" xmlns="http://www.w3.org/2000/svg" xmlns:xlink="http://www.w3.org/1999/xlink">
<path d="M58.358,28.666L58.358,65.369C58.358,67.394 56.487,69.039 54.185,69.039C51.882,69.039 50.011,67.394 50.011,65.369L50.011,53.472C50.011,51.447 48.14,49.801 45.838,49.801L37.49,49.801C35.188,49.801 33.317,51.447 33.317,53.472L33.317,54.991C33.317,57.016 31.446,58.661 29.143,58.661C26.841,58.661 24.97,57.016 24.97,54.991L24.97,37.588C24.97,35.563 26.841,33.918 29.143,33.918C31.446,33.918 33.317,35.563 33.317,37.588L33.317,38.854C33.317,40.879 35.188,42.524 37.49,42.524L45.91,42.524C48.212,42.524 50.083,40.879 50.083,38.854L50.083,28.666C50.083,26.641 51.954,24.995 54.257,24.995C56.487,25.059 58.358,26.641 58.358,28.666Z" fill="#FFFFFF"/>
<path d="M51.018,76.57C49.795,76.57 48.572,77.076 47.852,77.962C43.751,82.645 37.202,85.682 29.935,85.682C17.63,85.682 7.628,77.139 7.628,66.698L7.628,26.388C7.628,15.947 17.702,7.404 29.935,7.404C37.418,7.404 44.038,10.568 48.14,15.377C48.932,16.263 50.083,16.832 51.378,16.832L51.81,16.832C54.976,16.832 56.919,13.668 55.12,11.39C49.795,4.556 40.728,0 30.438,0L29.575,0C13.312,0 0,11.327 0,25.122L0,67.394C0,81.189 13.312,92.516 29.575,92.516L30.438,92.516C40.225,92.516 48.86,88.466 54.256,82.202C56.127,79.924 54.328,76.57 51.018,76.57Z" fill="#FFFFFF"/>
<path d="M77.643,30.818L88.58,30.818C91.962,30.818 95.128,31.894 98.007,33.982C99.446,35.185 100.381,36.197 100.813,36.893C102.252,39.045 103.044,41.26 103.044,43.538L103.044,65.876C103.044,66.888 102.468,67.774 101.317,68.534C100.669,68.85 100.021,69.04 99.374,69.04C97.791,69.04 96.639,68.407 95.92,67.078C95.56,66.192 94.912,65.749 93.977,65.749C93.545,65.749 92.754,66.129 91.458,66.825C90.379,67.331 89.084,67.838 87.645,68.217C85.342,68.787 83.327,69.103 81.6,69.103L81.025,69.103C77.211,69.103 73.829,67.838 70.807,65.243C69.511,63.978 68.72,62.902 68.288,62.079C67.281,60.181 66.777,58.346 66.777,56.637L66.777,56.257C66.777,52.967 68.216,49.992 71.094,47.335C74.117,44.93 77.427,43.728 80.953,43.728L92.97,43.728C94.049,43.728 94.697,43.475 94.984,43.032C95.2,42.778 95.344,42.525 95.344,42.209L95.344,42.082C95.272,41.386 94.769,40.5 93.761,39.488C92.682,38.602 91.818,38.032 91.099,37.843C90.379,37.526 89.084,37.336 87.285,37.336L77.643,37.336C76.635,37.336 75.772,36.957 74.908,36.134C74.404,35.501 74.117,34.932 74.117,34.362L74.117,34.109C74.117,33.033 74.62,32.211 75.7,31.514C76.419,31.008 76.995,30.818 77.643,30.818ZM74.117,56.384C74.117,58.092 74.908,59.674 76.563,61.067C78.002,62.079 79.513,62.585 80.881,62.585L81.6,62.585C83.975,62.585 86.421,61.953 88.94,60.624C91.746,59.105 93.689,56.827 94.912,53.916C95.2,53.03 95.344,52.334 95.488,51.828L95.488,51.638C95.488,51.005 95.056,50.562 94.265,50.182C94.049,50.182 93.905,50.119 93.833,50.119L80.953,50.119C79.226,50.119 77.643,50.752 76.059,52.081C74.764,53.41 74.117,54.865 74.117,56.384Z" fill="#FFFFFF"/>
<path d="M114.773,15.314L115.061,15.314C116.716,15.314 118.011,16.074 119.019,17.529C119.307,18.036 119.451,18.605 119.451,19.238L119.451,19.618C119.451,21.01 118.587,22.212 116.86,23.035C116.212,23.288 115.565,23.414 114.917,23.414C112.974,23.414 111.607,22.592 110.672,20.883C110.456,20.44 110.384,19.997 110.384,19.618L110.384,19.301C110.384,17.593 111.391,16.39 113.406,15.631C113.91,15.378 114.341,15.314 114.773,15.314Z" fill="#FFFFFF"/>
<path d="M114.557,30.818L115.133,30.818C116.069,30.818 117.004,31.261 117.796,32.084C118.227,32.717 118.443,33.286 118.443,33.856L118.443,65.939C118.443,67.078 117.724,68.028 116.284,68.787C115.709,68.977 115.277,69.04 114.989,69.04L114.629,69.04C113.406,69.04 112.471,68.47 111.607,67.395C111.247,66.952 111.104,66.192 111.104,65.18L111.104,34.678C111.104,32.97 111.679,31.894 112.831,31.325C113.478,31.008 113.982,30.818 114.557,30.818Z" fill="#FFFFFF"/>
<path d="M130.676,30.818C131.899,30.818 132.906,31.325 133.698,32.274C134.202,32.97 134.777,33.286 135.497,33.286C135.785,33.286 136.504,33.033 137.512,32.527C140.174,31.388 142.981,30.818 145.787,30.818C151.4,30.818 156.221,32.717 160.179,36.577C161.618,38.222 162.553,39.551 163.057,40.627C164.208,42.589 164.784,45.183 164.784,48.41L164.784,65.306C164.784,66.825 164.28,67.838 163.345,68.344C162.697,68.787 161.906,69.04 161.042,69.04C160.107,69.04 159.243,68.66 158.38,67.964C157.732,67.395 157.372,66.509 157.372,65.243L157.372,48.537C157.372,46.132 157.012,44.36 156.293,43.221C154.926,40.69 152.695,38.918 149.601,37.843C148.234,37.463 146.938,37.273 145.787,37.273C142.477,37.273 139.527,38.412 137.152,40.69C135.857,42.019 134.921,43.601 134.49,45.436C134.346,46.069 134.202,47.145 134.202,48.537L134.202,65.243C134.202,66.762 133.698,67.774 132.763,68.281C132.115,68.724 131.395,68.977 130.46,68.977C129.524,68.977 128.661,68.597 127.797,67.901C127.15,67.331 126.79,66.446 126.79,65.18L126.79,34.552C126.79,33.286 127.15,32.337 127.869,31.768C128.877,31.135 129.74,30.818 130.676,30.818Z" fill="#FFFFFF"/>
<path d="M176.945,15.504C178.384,15.504 179.464,16.136 180.327,17.465C180.471,17.972 180.615,18.478 180.615,18.858L180.615,28.919C180.615,29.868 180.975,30.438 181.695,30.691C181.982,30.754 182.198,30.818 182.486,30.818L195.151,30.818C195.223,30.818 195.223,30.881 195.223,30.944L195.223,35.437C195.223,36.323 194.863,36.893 194.071,37.146C193.783,37.272 193.568,37.272 193.352,37.272L184.933,37.272C183.206,37.272 182.054,37.652 181.479,38.475C180.903,38.918 180.615,39.803 180.615,41.132L180.615,58.661C180.615,60.18 181.047,61.256 181.91,61.699C182.414,62.268 183.421,62.585 184.861,62.585L186.947,62.585C187.019,62.585 187.019,62.585 187.019,62.648L187.019,68.976C187.019,69.039 187.019,69.039 186.947,69.039L182.63,69.039C179.176,69.039 176.514,67.71 174.499,65.052C173.707,63.787 173.275,62.395 173.275,60.813L173.275,18.858C173.275,17.339 174.139,16.263 175.866,15.63C176.226,15.567 176.585,15.504 176.945,15.504Z" fill="#FFFFFF"/>
<path d="M222.926,30.754C228.971,30.754 234.224,32.779 238.829,36.766C240.484,38.348 241.276,39.55 241.276,40.373C241.276,40.563 241.276,40.689 241.348,40.753C241.348,41.575 240.916,42.335 240.124,43.094C239.693,43.41 232.641,47.84 219.041,56.32C219.041,56.32 217.889,57.079 215.587,58.534C215.227,58.914 215.083,59.231 215.083,59.61L215.083,59.863C215.083,60.306 215.371,60.749 215.947,61.066C218.249,62.078 220.408,62.584 222.423,62.584L223.286,62.584C226.524,62.584 229.619,61.509 232.569,59.357C234.152,57.965 235.087,56.889 235.375,56.32C235.879,55.624 236.311,54.738 236.742,53.535C237.03,52.333 237.39,51.447 237.966,51.004C238.829,50.308 239.693,49.992 240.556,49.992C242.283,49.992 243.435,50.688 244.082,52.143C244.226,52.46 244.298,52.776 244.298,53.156L244.298,53.282C244.298,54.231 243.722,55.813 242.715,58.028C242.139,59.231 241.132,60.559 239.765,62.141C238.326,63.534 237.102,64.609 236.023,65.306C234.152,66.445 232.569,67.267 231.13,67.71C228.395,68.659 225.805,69.166 223.286,69.166L222.639,69.166C218.249,69.166 214.004,67.963 209.974,65.495C208.031,64.166 206.448,62.774 205.153,61.192C204.217,59.99 203.498,58.851 202.922,57.838C201.699,55.117 201.051,52.586 201.051,50.118C201.051,45.562 202.778,41.385 206.232,37.588C207.815,36.07 209.039,35.121 209.758,34.741C213.86,32.083 218.177,30.754 222.926,30.754ZM208.535,49.865C208.535,51.637 208.751,52.649 209.254,52.966C209.614,53.282 210.046,53.409 210.622,53.409C211.053,53.409 211.845,52.966 212.996,52.143C213.14,52.08 218.825,48.536 230.122,41.449C230.554,41.069 230.77,40.689 230.77,40.246L230.77,39.993C230.77,39.55 230.482,39.17 229.906,38.791C227.604,37.715 225.445,37.209 223.43,37.209L222.567,37.209C219.257,37.209 216.091,38.348 213.068,40.626C210.046,43.347 208.535,46.385 208.535,49.865Z" fill="#FFFFFF"/>
<path d="M270.347,30.818C274.88,30.818 278.982,31.957 282.723,34.236C283.587,34.932 284.019,35.754 284.019,36.767C284.019,37.906 283.371,38.792 282.076,39.488C281.428,39.741 280.852,39.868 280.349,39.868C279.485,39.868 278.406,39.488 277.183,38.792C275.096,37.779 272.721,37.273 270.203,37.273L269.915,37.273C267.684,37.273 265.381,37.843 263.007,38.982C259.913,40.627 257.754,42.905 256.603,45.879C256.099,47.271 255.811,48.6 255.811,49.992C255.811,53.473 257.394,56.574 260.488,59.295C262.431,60.75 264.302,61.699 266.245,62.142C267.612,62.459 268.835,62.649 269.843,62.649L270.203,62.649C273.081,62.649 275.815,61.953 278.334,60.497C278.982,60.181 279.629,60.054 280.277,60.054C281.428,60.054 282.436,60.56 283.299,61.51C283.731,62.079 283.875,62.712 283.875,63.281C283.875,64.61 283.083,65.686 281.572,66.382C278.118,68.217 274.304,69.167 270.131,69.167C265.453,69.167 261.064,67.838 256.962,65.117C256.027,64.484 255.019,63.598 253.94,62.522C252.717,61.256 251.853,60.181 251.494,59.485C249.623,56.51 248.615,53.41 248.615,50.056C248.615,45.942 250.054,42.082 253.005,38.539C253.508,37.906 254.444,37.02 255.883,35.818C257.466,34.678 258.905,33.729 260.272,33.16C263.583,31.514 266.965,30.818 270.347,30.818Z" fill="#FFFFFF"/>
<path d="M295.892,15.504L296.18,15.504C297.475,15.504 298.483,16.136 299.346,17.339C299.562,17.845 299.706,18.288 299.706,18.541L299.706,31.261C299.706,32.02 300.138,32.526 301.001,32.843C301.145,32.843 301.289,32.906 301.361,32.906L301.433,32.906C301.865,32.906 302.728,32.589 304.095,32.02C306.47,31.197 308.773,30.818 311.075,30.818C315.824,30.818 319.998,32.273 323.74,35.121C325.467,36.639 326.546,37.778 326.978,38.475C328.273,40.246 329.137,42.082 329.568,44.043C329.856,45.056 330,46.638 330,48.853L330,65.369C330,67.141 329.281,68.28 327.77,68.849C327.266,69.039 326.762,69.102 326.474,69.102L326.186,69.102C324.819,69.102 323.74,68.47 322.948,67.141C322.732,66.761 322.589,66.128 322.589,65.369L322.589,47.65C322.589,44.803 321.509,42.335 319.278,40.31C316.904,38.285 314.169,37.272 311.003,37.272C307.693,37.272 304.815,38.411 302.368,40.753C300.497,42.651 299.562,44.929 299.562,47.587L299.562,65.938C299.562,66.888 299.058,67.71 297.979,68.47C297.331,68.849 296.684,69.039 296.036,69.039L295.748,69.039C294.525,69.039 293.517,68.47 292.726,67.394C292.366,66.951 292.222,66.192 292.222,65.179L292.222,19.301C292.222,17.529 292.942,16.39 294.453,15.82C295.029,15.63 295.532,15.504 295.892,15.504Z" fill="#FFFFFF"/>
</svg>
