<svg width="58" height="58" viewBox="0 0 58 58" fill="none" xmlns="http://www.w3.org/2000/svg" xmlns:xlink="http://www.w3.org/1999/xlink">
<circle cx="-470" cy="-1260" r="0" fill="#000000"/>
<path d="M38,21.5L38,36.5C38,37.328 37.328,38 36.5,38C35.672,38 35,37.328 35,36.5L35,31.638C35,30.81 34.328,30.138 33.5,30.138L30.5,30.138C29.672,30.138 29,30.81 29,31.638L29,32.259C29,33.086 28.328,33.759 27.5,33.759C26.672,33.759 26,33.086 26,32.259L26,25.147C26,24.319 26.672,23.647 27.5,23.647C28.328,23.647 29,24.319 29,25.147L29,25.664C29,26.491 29.672,27.164 30.5,27.164L33.526,27.164C34.353,27.164 35.026,26.491 35.026,25.664L35.026,21.5C35.026,20.672 35.698,20 36.526,20C37.328,20.026 38,20.672 38,21.5Z" fill="#FFFFFF"/>
<path d="M36.283,41.45C35.845,41.45 35.407,41.658 35.149,42.022C33.679,43.945 31.332,45.193 28.728,45.193C24.318,45.193 20.733,41.684 20.733,37.395L20.733,20.839C20.733,16.55 24.344,13.041 28.728,13.041C31.409,13.041 33.782,14.341 35.252,16.316C35.535,16.68 35.948,16.914 36.412,16.914L36.567,16.914C37.702,16.914 38.398,15.614 37.753,14.679C35.845,11.871 32.596,10 28.908,10L28.599,10C22.771,10 18,14.653 18,20.319L18,37.681C18,43.347 22.771,48 28.599,48L28.908,48C32.415,48 35.51,46.337 37.444,43.763C38.114,42.828 37.47,41.45 36.283,41.45Z" fill="#FFFFFF"/>
</svg>
